<?xml version="1.0" encoding="iso-8859-1"?>
<!-- Generator: Adobe Illustrator 26.5.0, SVG Export Plug-In . SVG Version: 6.00 Build 0)  -->
<svg version="1.1" id="Layer_1" xmlns="http://www.w3.org/2000/svg" xmlns:xlink="http://www.w3.org/1999/xlink" x="0px" y="0px"
	 viewBox="0 0 32 32" style="enable-background:new 0 0 32 32;" xml:space="preserve">
<polygon style="fill:#F0EFEF;" points="31,18 30,18 30,16 28,16 28,8 27,8 27,6 26,6 26,5 25,5 25,4 24,4 24,3 23,3 23,2 22,2 22,3 
	21,3 21,4 20,4 20,5 19,5 19,6 13,6 13,5 12,5 12,4 11,4 11,3 10,3 10,2 9,2 9,3 8,3 8,4 7,4 7,5 6,5 6,6 5,6 5,8 4,8 4,16 2,16 
	2,18 1,18 1,21 2,21 2,23 4,23 4,27 3,27 3,28 2,28 2,30 3,30 3,31 12,31 12,29 13,29 13,28 14,28 14,27 18,27 18,28 19,28 19,29 
	20,29 20,31 29,31 29,30 30,30 30,28 29,28 29,27 28,27 28,23 30,23 30,21 31,21 "/>
<polygon style="fill:#B4B4B4;" points="20,19 19,19 19,18 13,18 13,19 12,19 12,20 13,20 13,22 19,22 19,20 20,20 "/>
<g>
	<polygon style="fill:#010101;" points="19,12 18,12 18,13 14,13 14,12 13,12 13,13 5,13 5,14 5,17 6,17 6,14 9,14 9,15 10,15 
		10,16 12,16 12,15 13,15 13,14 14,14 14,16 14,17 13,17 13,18 15,18 15,17 17,17 17,18 19,18 19,17 18,17 18,16 18,14 19,14 19,15 
		20,15 20,16 22,16 22,15 23,15 23,14 26,14 26,17 27,17 27,14 27,13 19,13 	"/>
	<polygon style="fill:#010101;" points="4,24 4,23 3,23 2,23 2,24 3,24 3,27 4,27 	"/>
	<rect x="20" y="31" style="fill:#010101;" width="9" height="1"/>
	<rect x="3" y="31" style="fill:#010101;" width="9" height="1"/>
	<rect x="12" y="29" style="fill:#010101;" width="1" height="2"/>
	<rect x="13" y="28" style="fill:#010101;" width="1" height="1"/>
	<rect x="14" y="27" style="fill:#010101;" width="4" height="1"/>
	<rect x="18" y="28" style="fill:#010101;" width="1" height="1"/>
	<rect x="19" y="29" style="fill:#010101;" width="1" height="2"/>
	<rect x="13" y="5" style="fill:#010101;" width="6" height="1"/>
	<rect x="6" y="4" style="fill:#010101;" width="1" height="1"/>
	<rect x="7" y="3" style="fill:#010101;" width="1" height="1"/>
	<rect x="8" y="2" style="fill:#010101;" width="1" height="1"/>
	<rect x="9" y="1" style="fill:#010101;" width="1" height="1"/>
	<rect x="10" y="2" style="fill:#010101;" width="1" height="1"/>
	<rect x="11" y="3" style="fill:#010101;" width="1" height="1"/>
	<rect x="12" y="4" style="fill:#010101;" width="1" height="1"/>
	<rect x="9" y="3" style="fill:#010101;" width="1" height="1"/>
	<polygon style="fill:#010101;" points="11,4 10,4 10,5 9,5 9,4 8,4 8,5 7,5 7,6 12,6 12,5 11,5 	"/>
	<rect x="19" y="4" style="fill:#010101;" width="1" height="1"/>
	<rect x="20" y="3" style="fill:#010101;" width="1" height="1"/>
	<rect x="21" y="2" style="fill:#010101;" width="1" height="1"/>
	<rect x="22" y="1" style="fill:#010101;" width="1" height="1"/>
	<rect x="23" y="2" style="fill:#010101;" width="1" height="1"/>
	<rect x="24" y="3" style="fill:#010101;" width="1" height="1"/>
	<rect x="25" y="4" style="fill:#010101;" width="1" height="1"/>
	<rect x="22" y="3" style="fill:#010101;" width="1" height="1"/>
	<polygon style="fill:#010101;" points="24,4 23,4 23,5 22,5 22,4 21,4 21,5 20,5 20,6 21,6 24,6 25,6 25,5 24,5 	"/>
	<rect y="18" style="fill:#010101;" width="1" height="3"/>
	<rect x="1" y="21" style="fill:#010101;" width="1" height="2"/>
	<rect x="1" y="16" style="fill:#010101;" width="1" height="2"/>
	<polygon style="fill:#010101;" points="4,16 4,15 4,8 3,8 3,15 2,15 2,16 3,16 	"/>
	<rect x="6" y="17" style="fill:#010101;" width="1" height="1"/>
	<rect x="25" y="17" style="fill:#010101;" width="1" height="1"/>
	<polygon style="fill:#010101;" points="19,19 20,19 20,20 21,20 21,19 25,19 25,18 19,18 	"/>
	<polygon style="fill:#010101;" points="13,19 13,18 7,18 7,19 11,19 11,20 12,20 12,19 	"/>
	<polygon style="fill:#010101;" points="11,22 11,23 12,23 12,22 12,21 11,21 	"/>
	<polygon style="fill:#010101;" points="20,23 21,23 21,22 21,21 20,21 20,22 	"/>
	<rect x="12" y="20" style="fill:#010101;" width="1" height="1"/>
	<rect x="19" y="20" style="fill:#010101;" width="1" height="1"/>
	<rect x="15" y="22" style="fill:#010101;" width="2" height="1"/>
	<rect x="15" y="18" style="fill:#010101;" width="2" height="1"/>
	<rect x="15" y="20" style="fill:#010101;" width="2" height="1"/>
	<rect x="13" y="21" style="fill:#010101;" width="2" height="1"/>
	<rect x="17" y="21" style="fill:#010101;" width="2" height="1"/>
	<rect x="2" y="27" style="fill:#010101;" width="1" height="1"/>
	<rect x="1" y="28" style="fill:#010101;" width="1" height="2"/>
	<rect x="2" y="30" style="fill:#010101;" width="1" height="1"/>
	<rect x="31" y="18" style="fill:#010101;" width="1" height="3"/>
	<rect x="30" y="21" style="fill:#010101;" width="1" height="2"/>
	<rect x="30" y="16" style="fill:#010101;" width="1" height="2"/>
	<polygon style="fill:#010101;" points="28,16 29,16 30,16 30,15 29,15 29,8 28,8 28,15 	"/>
	<polygon style="fill:#010101;" points="28,23 28,24 28,27 29,27 29,24 30,24 30,23 29,23 	"/>
	<rect x="29" y="27" style="fill:#010101;" width="1" height="1"/>
	<rect x="30" y="28" style="fill:#010101;" width="1" height="2"/>
	<rect x="29" y="30" style="fill:#010101;" width="1" height="1"/>
	<rect x="5" y="5" style="fill:#010101;" width="1" height="1"/>
	<rect x="26" y="5" style="fill:#010101;" width="1" height="1"/>
	<rect x="4" y="6" style="fill:#010101;" width="1" height="2"/>
	<rect x="27" y="6" style="fill:#010101;" width="1" height="2"/>
</g>
<rect x="9" y="4" style="fill:#E98DB8;" width="1" height="1"/>
<rect x="15" y="17" style="fill:#E177AF;" width="2" height="1"/>
<rect x="22" y="4" style="fill:#E98DB8;" width="1" height="1"/>
<rect x="15" y="14" style="fill:#B4B4B4;" width="2" height="2"/>
<rect x="-2" style="fill:#F0EFEF;" width="2" height="2"/>
<rect x="-2" y="2" style="fill:#B4B4B4;" width="2" height="2"/>
<rect x="-2" y="4" style="fill:#010101;" width="2" height="2"/>
<rect x="-2" y="6" style="fill:#E98DB8;" width="2" height="2"/>
</svg>
