<?xml version="1.0" encoding="utf-8"?>
<!-- Generator: Adobe Illustrator 25.2.1, SVG Export Plug-In . SVG Version: 6.00 Build 0)  -->
<svg version="1.1" id="Layer_1" xmlns="http://www.w3.org/2000/svg" xmlns:xlink="http://www.w3.org/1999/xlink" x="0px" y="0px"
	 width="1000px" height="1330.6px" viewBox="0 0 1000 1330.6" style="enable-background:new 0 0 1000 1330.6;" xml:space="preserve"
	>
<style type="text/css">
	.st0{fill:#EFEFEF;}
	.st1{fill:#B3B3B3;}
	.st2{fill:#FFFFFF;}
	.st3{fill:#E88CB8;}
	.st4{fill:#E277AF;}
</style>
<path d="M695.6,22.8c-22,27.8-66.5,84.2-90.1,115H393.2c-23.6-30.8-68.1-87.2-90.1-115l-7.6-9.6C280.7-5.6,251.7-4.1,238.9,16
	l-6.6,10.3c-5.4,8.4-46.9,73.8-69,119.5c-19.8,7.4-37.6,19.8-51.7,36c-19.9,23.1-30.9,52.5-30.9,83v179
	c-18.9,10.3-35.7,24.6-48.9,41.8C11,512.8,0,545.4,0,579.8s11,66.9,31.9,94.1c13.2,17.2,30,31.5,49,41.8c0.1,24.6,0.1,51.6,0.1,71.9
	c-8.4,4.3-16.2,9.8-23.1,16.5c-20.2,19.4-30.5,45.9-28.5,73.7c3.5,49.3,45.5,87,94.9,87h260.3h33.2l8.8-32
	c9-32.8,39.2-55.8,73.3-55.8s64.2,22.9,73.3,55.8l8.8,32h33.2h260.6c49.4,0,91.4-37.7,94.9-87c2-27.8-8.3-54.2-28.5-73.7
	c-7-6.7-14.8-12.2-23.1-16.5c0-20.2,0.1-47.2,0.1-71.9c19-10.3,35.8-24.6,49-41.8c20.9-27.2,31.9-59.7,31.9-94.1s-11-66.9-31.9-94.1
	c-13.2-17.2-30-31.4-48.9-41.8v-179c0-30.8-11.2-60.6-31.5-83.7c-14.3-16.3-32.5-28.6-52.6-35.8c-22.2-45.8-63.5-110.7-68.8-119
	l-6.6-10.3C746.9-4.1,718-5.5,703.2,13.2L695.6,22.8z"/>
<path class="st0" d="M875.6,820.7c-0.5,0,0-134,0-134c46.6-13.2,80.8-56.1,80.8-107s-34.2-93.7-80.8-107V264.9
	c0-42.2-31.3-77-71.9-82.7c-15.1-40.2-74-132.4-74-132.4s-95.2,120.4-102.4,131.5H371.4C364.2,170.2,269,49.8,269,49.8
	s-59.1,92.5-74.1,132.6l0,0c-40,6.3-70.5,40.8-70.5,82.5v207.9c-46.6,13.2-80.8,56.1-80.8,107s34.2,93.7,80.8,107c0,0,0.5,134,0,134
	c-27.8,0-51.7,22.5-51.7,50.3s22.5,50.3,50.3,50.3c0.5,0,261.7,0,261.7,0c13.9-50.6,60.2-87.7,115.2-87.7s101.3,37.2,115.2,87.7
	c0,0,261.5,0,262,0c27.8,0,50.3-22.5,50.3-50.3C927.3,843.2,903.4,820.7,875.6,820.7z"/>
<path d="M571,381.7c0.7-1.6,1.4-3.2,2-4.8c2.3-3.6,3.6-7.8,3.6-12.4c-0.1-12.7-10.7-23.1-23.3-23c-11.2,0.1-20.5,8.3-22.4,19
	c-2.1,6.1-9.4,21.3-28.7,21.3c-9.6,0-17.1-3.6-23.5-11.3c-3.1-3.8-5.3-7.7-6.6-10.5c-2.1-10.5-11.4-18.5-22.6-18.5
	c-12.4,0-22.5,9.5-23.1,21.9c-0.3,5.1,1.1,9.8,3.6,13.7c0.6,1.5,1.4,3,2.2,4.6H148.7c-4.4,0-8,3.6-8,8v28.6
	c0,45,18.5,87.1,52.1,118.7c33,31,76.7,48,123,48c18,0,35.6-2.6,52.3-7.5c0.6,11.7,4.1,19.7,4.4,20.5c0.5,1.2,1.2,2.3,1.9,3.4
	c11.3,16.9,27.4,27,46.4,29.4c5.3,0.6,21.2,12.8,27.1,16.4c3.3,2,21.6,12,53,12c30.2,0,47.5-7.5,50.7-9c6.5-3.1,28.8-19,31.6-19.4
	c19.1-2.3,35.1-12.5,46.4-29.4c0.7-1.1,1.4-2.2,1.9-3.4c0.3-0.7,3.6-8.2,4.4-19.3c15.4,4.2,31.6,6.3,48.1,6.3
	c46.4,0,90.1-17.1,123-48c33.6-31.6,52.1-73.7,52.1-118.7v-28.6c0-4.4-3.6-8-8-8L571,381.7L571,381.7z"/>
<path class="st1" d="M479.6,478.1c6.6-16.4,10.5-33.8,11.4-51.8c3.6,0.5,7.4,0.8,11.3,0.8c2.4,0,4.8-0.1,7-0.3
	c0.9,17.5,4.7,34.6,11.1,50.6C507.2,475.7,492.4,475.9,479.6,478.1z"/>
<g>
	<path class="st2" d="M374.2,418.2c-1.8,26.8-24.1,48-51.4,48s-49.6-21.2-51.4-48h-90c-2.3,0-4.1,1.9-4,4.1
		c2.3,70,63.5,126,138.5,126s136.2-56.1,138.5-126c0.1-2.3-1.7-4.1-4-4.1L374.2,418.2L374.2,418.2z"/>
	<path class="st2" d="M625.8,418.2c1.8,26.8,24.1,48,51.4,48c27.3,0,49.6-21.2,51.4-48h90c2.3,0,4.1,1.9,4,4.1
		c-2.3,70-63.5,126-138.5,126s-136.2-56.1-138.5-126c-0.1-2.3,1.7-4.1,4-4.1L625.8,418.2L625.8,418.2z"/>
</g>
<g>
	<path d="M224.7,161.2c-2.2,4.6,1.1,10,6.3,10h96.9c5.6,0,8.9-6.4,5.7-11l-17.3-24.7l-24.7-35.1l-8.5-12.1
		c-6.1-8.7-19.3-7.6-23.9,1.9L224.7,161.2z"/>
	<path d="M672.1,171.2H769c5.1,0,8.5-5.4,6.3-10l-34.5-70.9c-4.6-9.5-17.8-10.6-23.9-1.9l-50.5,71.9
		C663.2,164.9,666.5,171.2,672.1,171.2z"/>
</g>
<g>
	<polygon class="st3" points="256,148.6 297.7,148.6 273,113.5 	"/>
	<polygon class="st3" points="744,148.6 702.3,148.6 727,113.5 	"/>
</g>
<path class="st4" d="M500,532.6c-3.1-14.7-22.9-21.3-31.2-23.5c-1.6-0.4-1.8-2.5-0.3-3.2c13.3-6.9,49.9-6.9,63.2,0
	c1.4,0.7,1.2,2.8-0.3,3.2C522.9,511.3,503.1,517.9,500,532.6L500,532.6z"/>
<path class="st1" d="M459.7,626.2c0,0,9.5-8.1,41.5-8.1s39.1,10,39.1,10s-13.9,6.6-40.2,6.6C473.9,634.8,459.7,626.2,459.7,626.2z"
	/>
<path class="st1" d="M590.6,538c-28.5-24.2-31.8-25.6-31.8-25.6s-0.5,24.7-27.5,24.7c0,0-3.3,18.5-31.3,18.5s-31.3-18.5-31.3-18.5
	c-27,0-27.5-24.7-27.5-24.7s-3.3,1.4-31.8,25.6c-28.5,24.2-16.8,49.8-16.8,49.8c34,50.7,107.4-15.7,107.4-15.7s73.4,66.4,107.4,15.7
	C607.4,587.8,619,562.2,590.6,538z"/>
<g>
	<path d="M322.9,672.7c-0.1,0-0.2,0-0.3,0c-3.8-0.2-6.8-3.4-6.7-7.2c2.1-51.8,27.7-81.2,48.8-96.9c22.8-16.9,45-21.4,45.9-21.6
		c3.8-0.8,7.4,1.7,8.2,5.5c0.8,3.8-1.7,7.4-5.5,8.2c-0.3,0.1-20.6,4.4-40.8,19.5c-26.9,20.1-41.3,49-42.7,85.9
		C329.7,669.8,326.6,672.7,322.9,672.7z"/>
	<path d="M359,702.4c-3.8,0-6.9-3-7-6.9c-1.3-89.7,60.5-116,63.1-117c3.6-1.5,7.6,0.3,9.1,3.8c1.4,3.6-0.3,7.6-3.8,9.1l0,0
		c-2.3,0.9-55.7,24.1-54.5,103.9C366,699.1,362.9,702.3,359,702.4L359,702.4z"/>
	<path d="M677.1,672.7c-3.7,0-6.8-2.9-7-6.7c-1.5-36.9-15.9-65.8-42.7-85.9c-20.3-15.2-40.6-19.5-40.8-19.5
		c-3.8-0.8-6.2-4.4-5.4-8.2s4.4-6.2,8.2-5.5c0.9,0.2,23.1,4.8,45.9,21.6c21.1,15.6,46.8,45.1,48.8,96.9c0.2,3.8-2.8,7.1-6.7,7.2
		C677.3,672.7,677.2,672.7,677.1,672.7z"/>
	<path d="M641,702.4L641,702.4c-3.9-0.1-7-3.2-7-7.1c1.2-80.3-53.9-103.7-54.5-103.9c-3.6-1.5-5.3-5.5-3.8-9.1s5.5-5.3,9.1-3.8
		c2.6,1.1,64.5,27.3,63.2,117C647.9,699.4,644.8,702.4,641,702.4z"/>
</g>
<g>
	<path d="M461.4,1330.4c-143.6,0-287.2,0-430.7,0.1c-6.5,0-12.1-2.3-16.8-5.9c-8.9-6.9-14.3-15.8-13.9-27.8s0.3-24,0-36
		c-0.1-8,3.2-14.5,8.2-20.4c5.6-6.5,8.2-13.3,4.8-22c-4.3-11.1-4.7-22.6-2.1-34.2c3.5-15.7,6.9-31.5,10.2-47.3
		c2.8-13.6,5.4-27.2,8.2-40.7c2.3-11.1,5-22.2,7.3-33.3c2.9-13.8,5.7-27.6,8.7-41.4c2.6-12,7.8-22.4,19.1-28.4
		c4.3-2.2,9.4-3.8,14.2-3.9c20.1-0.4,40.3-0.3,60.4-0.1c9,0.1,17.2,3.1,25.1,7.1c11.1,5.7,19.2,14.7,26.4,24.8
		c3.2,4.6,8,4.2,10.8-0.6c3.1-5.2,5.4-10.8,8.5-15.9c4.9-8.1,12.7-12.6,21.6-15.3c0.9-0.3,1.9-0.1,2.9-0.1c21.2,0,42.4-0.2,63.7,0.1
		c4.6,0.1,9.2,2,13.8,3.2c5,1.4,10,3.7,15.3,1.7c3.6-1.4,6.9-3.6,10.2-5.5c13.3-7.5,27.7-10.3,42.7-8.8c14.3,1.4,27.5,6.2,38.3,16
		c5.1,4.6,10,4.1,15.8,1.4c10.8-5,22-8.8,33.8-10.2c6.9-0.8,13.8-1.3,20.8-1.5c14.2-0.4,28.3,0.1,42.2,3.5
		c5.9,1.4,11.8,2.4,17.8,3.6c5.2,1,9.9-1.1,14.7-2.4c1.9-0.5,3.9-0.9,5.9-1.1c2-0.2,4.1,0,6.2,0c27.1-0.2,54.2-0.6,81.4-0.7
		c20.9,0,41.9,0,62.8,0.9c9,0.4,17.5,4.1,25.1,9.3c10.4,7.1,18.6,16.2,23.2,28.1c1.7,4.2,3.1,8.6,4.5,12.9c1.1,3.3,4.1,5.4,7.7,5.6
		c16.5,0.7,32.7,2.8,47.8,10.3c5.2,2.6,9.8,2.6,14.7-0.9c4.8-3.5,10.3-5.1,16.3-5.1c22.8,0.1,45.6,0.1,68.4,0c4,0,8.1-0.5,12-1.5
		c10.6-2.5,21.3-3.2,31.8-1.2c13.1,2.6,23.3,9.6,27.5,23.4c2.1,6.9,1.8,13.7,0.1,20.7c-3,12.5-5.2,25.3-8.3,37.8
		c-2.4,9.8-4.5,19.7-12.9,26.7c-7.8,6.5-16.6,8.5-26.4,7.3c-2.9-0.4-5.8-1.5-8.7-1.8c-4.3-0.4-6.9,1.8-7.9,6
		c-1.6,6.8-3.4,13.5-4.9,20.4c-1.9,8.3-3.5,16.7-5.2,25c-1.7,8.1-3.5,16.2-5,24.4c-1,5-1.4,10,0.4,15.2c1.9,5.2,3.1,10.8,3.4,16.2
		c0.5,9.5,0.2,19.1,0.1,28.6c0,1.4-0.4,2.8-0.4,4.3c-0.1,9.2-4.7,16.1-11.4,21.5c-4.1,3.3-12.4,8-17.8,8
		C888.3,1330.4,605.5,1330.4,461.4,1330.4z"/>
	<path class="st0" d="M255.2,1080.4c0.3,0,0.7,0,1,0.1c-0.2,1.4-0.2,2.9-0.5,4.3c-1.2,5.9-2.6,11.8-3.8,17.7
		c-2,9.9-3.9,19.8-5.9,29.6c-1.1,5.3-2.4,10.6-3.5,15.9c-2,9.7-3.9,19.5-6,29.2c-1.8,8.4-4,16.6-2.8,25.3
		c1.6,12.6,8.5,20.8,20.1,25.3c9.7,3.8,19.8,3,29.9,2.7c2.5-0.1,4.3-1.9,4.8-4.9c1.3-7.3,3.1-14.6,4.7-21.9
		c1.1-5.2,2.1-10.4,3.2-15.6c1.4-6.8,2.9-13.7,4.3-20.5c1.2-5.7,2.5-11.3,3.7-17c1.8-8.9,3.5-17.9,5.4-26.8c2-9.1,4.2-18.2,6.2-27.4
		c2.4-11.1,4.2-22.4,6.9-33.4c2.7-11.1,1.5-21.3-5.5-30.5c-6.1-8-14.3-12.7-24.5-12.8c-17.7-0.2-35.4,0-53.1-0.1
		c-2.7,0-4.3,0.9-5.3,3.3c-1.6,3.7-3.4,7.3-5,11c-6.8,16.2-13.6,32.4-20.5,48.6c-5,11.8-10.1,23.6-15.2,35.4c-3,7-6,14-9.1,21
		c-3.3,7.7-6.6,15.4-9.9,23.1c-0.4,0.8-1.1,1.5-1.7,2.3c-0.4-0.9-1.1-1.8-1.2-2.7c-0.3-8.2-0.5-16.4-0.8-24.6
		c-0.4-11.3-1-22.6-1.4-33.9c-0.5-14-0.8-28-1.5-41.9c-0.4-8-1-16.1-4.4-23.6c-4.4-9.5-15.9-17.6-26.6-17.8
		c-17.7-0.3-35.4-0.1-53.1-0.1c-6.1,0-6.9,0.6-8.2,6.5c-1.4,6.5-2.5,13-3.9,19.5c-1.3,6-2.8,12-4.1,18c-1.9,8.7-3.6,17.4-5.5,26
		c-2,9.1-4.1,18.2-6.1,27.4c-1.7,7.8-3.1,15.6-4.7,23.3c-1.5,7.2-3.2,14.3-4.8,21.5c-1.5,6.9-2.8,13.9-4.4,20.9
		c-1.8,8.2-3.6,16.2-0.8,24.6c3.1,9.5,9.1,16.3,18,20.4c7.7,3.6,16.1,3.2,24.4,2.8c1.5-0.1,3.7-2.1,4.1-3.6c1.7-6,3-12.2,4.3-18.3
		c1.8-8.3,3.7-16.6,5.3-25c2.3-12,4.4-24,6.7-36c2.1-10.8,4.3-21.6,6.5-32.4c2.2-11.2,4.4-22.3,6.6-33.5c0.1-0.6,0.9-1.2,1.9-2.4
		c0.4,2.8,0.8,4.8,0.9,6.8c0.3,4.8,0.5,9.6,0.8,14.4c0.7,11.5,1.5,23,2.2,34.5c0.5,8.8,0.9,17.5,1.5,26.3
		c0.7,10.2,1.5,20.3,2.1,30.5c0.6,10.4,1.1,20.9,1.5,31.4c0.2,5.2,2.5,7.6,7.7,7.6c14.7,0,29.4-0.2,44,0.1c5.2,0.1,7.7-2.3,9.5-6.4
		c2.7-6.1,5.5-12.2,8.3-18.3c5.7-12.3,11.5-24.5,17.2-36.9c6.7-14.8,13.2-29.7,19.9-44.6C241.4,1109.9,248.4,1095.1,255.2,1080.4z"
		/>
	<path class="st0" d="M492.2,1015.4c-15,0-29.3,2.8-43.1,8.6c-11.8,5-21.6,12.5-29.6,22.6c-6.2,7.8-9.5,16.7-11.4,26.4
		c-1.8,8.8-1.5,17.4-0.4,26.1c1.4,11.3,6.9,20.6,14.6,28.7c7.8,8.2,17.6,13.3,27.4,18.5c5.9,3.1,11.8,6.1,17.5,9.5
		c4.2,2.6,7.8,6.4,8.7,11.4c1.9,10.5-5,18.6-15.8,19.1c-5.1,0.2-10.2,0-15.3,0c-8.4,0-16.2-2.8-23.6-6c-6.8-3-13.1-7.2-19.7-10.6
		c-1.4-0.7-4.3-0.4-5.2,0.6c-1.2,1.5-1.2,4-1.7,6c-1.6,7-3.2,14.1-4.8,21.1c-1.3,5.9-2.7,11.8-3.8,17.7c-0.4,2.2,0,4.2,2.8,5
		c9.9,3.2,19.5,7.2,29.6,9.6c9.7,2.3,19.7,3.8,29.6,4.4c8.2,0.5,16.5-0.7,24.8-1.3c9.6-0.6,18.8-3,27.8-6.5
		c15.3-5.9,27.4-15.5,35.5-29.8c3.7-6.5,6.3-13.6,7-21c0.6-6.4,0.5-12.9,0-19.3c-0.6-7.3-2.6-14.5-6.2-21
		c-5.5-10-13.8-17.3-23.3-23.3c-10.1-6.4-20.6-12.3-30.6-18.9c-6.9-4.6-9.4-9.8-8.3-17.4c0.9-6.4,5.5-9,10.6-10.8
		c8.8-3.2,17.8-1.3,26.7-0.3c4.8,0.5,9.4,2.5,14.2,3c7.1,0.9,13.5-1.5,19-5.9c10.1-8.3,12-20,12.5-32.1c0-1.1-1.6-2.9-2.8-3.2
		c-10.2-2.9-20.4-6.1-30.9-7.9C513.3,1016.6,502.7,1016.3,492.2,1015.4z"/>
	<path class="st1" d="M346.9,1299.8c103.6,0,207.1,0,310.7,0c5.6,0,5.7-0.1,6.2-5.8c0.1-0.7,0-1.5,0-2.2c0-8.6,0-17.2,0-25.8
		c0-6.3,0-6.3-6.2-6.3c-207,0-414,0-621,0c-0.8,0-1.7,0.1-2.5,0c-2.4-0.3-3.2,1.1-3.3,3.1c-0.3,5.5-0.7,11.1-0.7,16.6
		c0,5.1,0.5,10.1,0.6,15.2s0,5.1,5.2,5.1C139.5,1299.8,243.2,1299.8,346.9,1299.8z"/>
	<path class="st0" d="M645.3,1019.7c-23.9,0-47.8,0-71.6,0c-2.6,0-4.1,0.5-4.7,3.6c-2.4,12.3-5.3,24.5-7.8,36.8
		c-1.5,7.5,0.1,9.1,7.8,9.1c14.5,0,29.1,0.1,43.6-0.1c3.4,0,4.7,1.6,4.4,4.5c-0.2,2.2-0.9,4.4-1.4,6.6c-2.3,11.3-4.4,22.5-6.8,33.8
		c-2.5,11.8-5.2,23.5-7.7,35.3c-3,14.1-6.1,28.3-8.4,42.5c-0.9,5.4-0.6,11.5,0.9,16.8c1.8,6.2,6.1,11.4,11.5,15.4
		c2.8,2.1,5.9,4.7,9.2,5c9.4,1.1,18.9,1.3,28.4,1.6c4.1,0.2,6-1.8,6.5-5.9c0.1-0.8,0.1-1.7,0.2-2.5c1.4-6.3,2.8-12.7,4.1-19
		c1.3-6.5,2.5-13,3.9-19.5c1.2-5.8,2.9-11.4,4.1-17.2c1.7-7.6,3.1-15.3,4.7-23c1.1-5.3,2.2-10.6,3.4-16c1.9-9.2,3.8-18.3,5.7-27.5
		c1.6-7.8,3.3-15.6,4.5-23.4c0.9-6.2,2-7.5,8.4-7.5c16.4,0,32.7-0.1,49.1,0.1c2.6,0,4.3-0.9,4.9-3.2c0.8-3.3,1.6-6.8,1.7-10.2
		c0.1-10.5-3.5-20-10.8-27.5c-5.1-5.3-11.5-8.8-19.6-8.8C690.7,1019.8,668,1019.7,645.3,1019.7z"/>
	<path class="st0" d="M741.6,1174.7c2.9-0.5,5.6-1.2,8.4-1.5c10.2-1.1,20.6-1.4,30.7-3.1c11-1.9,21.9-4.6,32.1-9.5
		c10-4.9,18-11.9,22.4-22.4c3.9-9.1,3.2-18.7,1.6-28c-2.4-14-11.7-22.6-24.3-27.9c-6.9-2.9-14.2-4.3-21.7-5.4
		c-10.9-1.5-21.4-0.9-32,1c-11.9,2.2-23.2,6.1-33.7,12.4c-12.1,7.2-21.3,17.1-28.6,29c-6.7,10.9-11.8,22.6-13.5,35.2
		c-1.6,11.7-1.8,23.6,1.1,35.4c4.4,18.3,15.2,30.7,32.4,37.9c6.9,2.9,14.3,4,21.7,5.4c12,2.2,23.7,0.9,35.4-0.7
		c8.5-1.2,16.8-3.8,25.1-6.2c4.4-1.3,9.6-2.1,11.7-7.2c1.2-3,1.7-6.4,2.4-9.6c1.6-7.7,3.2-15.5,4.6-23.3c0.7-3.7-0.1-4.2-3.9-3
		c-5.1,1.6-10.2,2.9-15.2,4.7c-11,3.9-22.2,5.8-33.8,4.8c-4.7-0.4-9.7-1.6-13.9-3.7C745,1186.4,741.3,1181.9,741.6,1174.7z"/>
	<path class="st0" d="M918,1080.1c-1.7,0-2.9,0-4.2,0c-17.1,0-34.2,0.1-51.3-0.1c-3.7-0.1-5.4,1.6-6.3,4.6c-0.9,2.8-1.3,5.8-1.8,8.7
		c-1,5.2-1.9,10.5-3,15.7c-1.1,5.7-2.5,11.3-3.6,17c-1.5,7.6-2.7,15.2-4.2,22.7c-1.2,5.9-2.7,11.8-3.8,17.7
		c-1.6,8.6-2.8,17.4-4.5,26c-2.1,10.7,0.9,19.8,8,27.7c6.8,7.6,15.6,10.6,25.6,10.6c6.6,0,13.2,0,19.7,0c0.6-2,1.1-3.1,1.3-4.2
		c1.5-7.6,2.8-15.1,4.4-22.7c2.3-10.8,4.6-21.5,7.3-32.2c2.6-10.2,4.4-20.6,11.5-29.1c5.3-6.3,11.9-10.5,19.7-12.1
		c7.1-1.4,14.5-1.1,21.4,1.5c2.4,0.9,3.3-0.2,3.7-1.9c1.7-6.2,3.2-12.4,4.7-18.6c2.1-9,3.9-18,6.2-27c1.4-5.6,0.4-7.2-5.3-7.4
		c-0.6,0-1.2,0-1.8-0.1c-8.5-1.2-16.5,0.1-24,4.4c-6.5,3.7-10.5,9.7-15,15.3c-2.2,2.8-4.4,5.6-6.6,8.3c-0.3-0.2-0.6-0.3-0.9-0.5
		C916.2,1096.5,917.1,1088.6,918,1080.1z"/>
	<path class="st0" d="M349.6,1230.7c1.8,0,3.6,0,5.5,0c7.3,0,7.5,0,9.4-6.7c1.5-5.6,2.7-11.3,3.9-17c2.5-11.7,4.8-23.4,7.3-35.2
		c1.4-6.5,2.9-12.9,4.3-19.4c1.7-8.2,3.5-16.4,4.9-24.7c1.3-7.2,3.2-14.5,1.6-21.9c-2.6-12.3-8.3-19.8-20.5-23.6
		c-10.3-3.2-21-1.9-31.5-2.1c-0.8,0-2.2,0.8-2.4,1.5c-0.8,2.2-1.1,4.6-1.6,6.9c-1.1,5.3-2.1,10.7-3.2,16c-1.1,5.2-2.3,10.4-3.4,15.6
		c-1.6,7.4-3.1,14.8-4.6,22.3c-1.1,5.2-2.3,10.4-3.4,15.6c-1.6,7.4-3.1,14.8-4.6,22.3c-1.5,7.7-3.6,15.2-2.1,23.3
		c2.2,11.7,8.7,19.4,19.2,24.3C335.2,1231,342.4,1230.7,349.6,1230.7z"/>
	<path class="st0" d="M374.7,1009.7c-1.6-0.2-3.3-0.1-4.9,0.2c-4.7,1-9.5,1.7-13.9,3.4c-5.3,2.2-10.1,5.4-14,10.1
		c-5,6.1-6.6,13-5.6,20.5c0.9,6.9,4,12.8,9.5,17.2c4.7,3.8,9.8,6.7,16.1,6.6c6.1-0.1,12.4,0.8,18.2-0.4c7.3-1.6,13.5-5.6,19.1-11
		c9.8-9.3,8.4-26.8,0-36C392.5,1013.2,384.1,1010.7,374.7,1009.7z"/>
	<path d="M781.7,1121.6c-0.2,6.3-3.4,10.7-8.1,13.6c-5.2,3.3-19.7,6.3-20.6,6.8c-2.8,1.5-5.6,0.7-7.2-1.1c-1.1-1.3-1.1-4.4-0.4-6.2
		c3.1-7.8,7.1-14.9,14.6-19.7c4.7-3,9.6-3.6,14.9-2.9C778.1,1112.6,782.4,1118.1,781.7,1121.6z"/>
	<g>
		<circle cx="56.9" cy="1279.8" r="9.4"/>
		<circle cx="81.6" cy="1279.8" r="9.4"/>
		<circle cx="105.2" cy="1279.8" r="9.4"/>
		
			<ellipse transform="matrix(6.652065e-02 -0.9978 0.9978 6.652065e-02 -1156.0658 1323.9436)" cx="129.5" cy="1279.8" rx="9.4" ry="9.4"/>
		<circle cx="153.7" cy="1279.8" r="9.4"/>
		<ellipse transform="matrix(0.1602 -0.9871 0.9871 0.1602 -1114.0342 1250.2145)" cx="177.7" cy="1279.8" rx="9.4" ry="9.4"/>
		<circle cx="201.7" cy="1279.8" r="9.4"/>
		<circle cx="226" cy="1279.8" r="9.4"/>
		<circle cx="261.8" cy="1279.8" r="9.4"/>
		<circle cx="286.8" cy="1279.8" r="9.4"/>
		<circle cx="310.8" cy="1279.8" r="9.4"/>
		<circle cx="334.8" cy="1279.8" r="9.4"/>
		<ellipse transform="matrix(0.1602 -0.9871 0.9871 0.1602 -961.804 1429.1984)" cx="359" cy="1279.8" rx="9.4" ry="9.4"/>
		<circle cx="382.1" cy="1279.8" r="9.4"/>
		<circle cx="406.9" cy="1279.8" r="9.4"/>
		<circle cx="432" cy="1279.8" r="9.4"/>
		<circle cx="468" cy="1279.8" r="9.4"/>
		<circle cx="491.7" cy="1279.8" r="9.4"/>
		<ellipse transform="matrix(0.7071 -0.7071 0.7071 0.7071 -753.8384 739.745)" cx="516" cy="1279.8" rx="9.4" ry="9.4"/>
		<circle cx="540" cy="1279.8" r="9.4"/>
		<circle cx="564.1" cy="1279.8" r="9.4"/>
		<circle cx="588.1" cy="1279.8" r="9.4"/>
		<circle cx="612.8" cy="1279.8" r="9.4"/>
		<circle cx="637.2" cy="1279.8" r="9.4"/>
		<circle class="st1" cx="56.9" cy="1279.8" r="3.6"/>
		<circle class="st1" cx="105.2" cy="1279.8" r="3.6"/>
		<circle class="st1" cx="153.7" cy="1279.8" r="3.6"/>
		
			<ellipse transform="matrix(0.1602 -0.9871 0.9871 0.1602 -1114.0344 1250.2145)" class="st1" cx="177.7" cy="1279.8" rx="3.6" ry="3.6"/>
		<circle class="st1" cx="261.8" cy="1279.8" r="3.6"/>
		<circle class="st1" cx="310.8" cy="1279.8" r="3.6"/>
		<circle class="st1" cx="358.8" cy="1279.8" r="3.6"/>
		<circle class="st1" cx="382.1" cy="1279.8" r="3.6"/>
		<circle class="st1" cx="432" cy="1279.8" r="3.6"/>
		<circle class="st1" cx="468" cy="1279.8" r="3.6"/>
		<circle class="st1" cx="516" cy="1279.8" r="3.6"/>
		<circle class="st1" cx="540" cy="1279.8" r="3.6"/>
		<circle class="st1" cx="564.1" cy="1279.8" r="3.6"/>
	</g>
</g>
<g>
	<path class="st4" d="M730.6,1263.4v-3.7c0-0.6-0.4-1-1-1h-35.8c-5,0-9,4-9,9v32.1c0,0.6,0.4,1,1,1h3.9c0.6,0,1-0.4,1-1v-17.3h38.9
		c0.6,0,1-0.4,1-1v-3.7c0-0.6-0.4-1-1-1h-38.9v-7.3c0-2.8,2.2-5,5-5h33.9C730.2,1264.4,730.6,1263.9,730.6,1263.4z"/>
	<path class="st4" d="M797.6,1290v-20.7c0-2.8,2.2-5,5-5h34.9c0.6,0,1-0.4,1-1v-3.7c0-0.6-0.4-1-1-1h-36.8c-5,0-9,4-9,9v24.1
		c0,5,4,9,9,9h28.8c5,0,9-4,9-9v-14c0-0.6-0.4-1-1-1l-26.9,0c-0.6,0-1,0.4-1,1v3.7c0,0.6,0.4,1,1,1h20c1.1,0,2,0.9,2,2v5.6
		c0,2.8-2.2,5-5,5h-25C799.8,1295,797.6,1292.8,797.6,1290z"/>
	<path class="st4" d="M846.1,1267.7v32.1c0,0.6,0.4,1,1,1h3.9c0.6,0,1-0.4,1-1v-16.2c0-0.6,0.4-1,1-1h33.1c0.6,0,1,0.4,1,1v16.2
		c0,0.6,0.4,1,1,1h3.9c0.6,0,1-0.4,1-1v-32.1c0-5-4-9-9-9h-28.9C850.1,1258.7,846.1,1262.7,846.1,1267.7z M852,1275.8v-6.5
		c0-2.8,2.2-5,5-5h25.1c2.8,0,5,2.2,5,5v6.5c0,0.6-0.4,1-1,1H853C852.4,1276.8,852,1276.4,852,1275.8z"/>
	<path class="st4" d="M737.3,1260.7v39.1c0,0.6,0.4,1,1,1h3.9c0.6,0,1-0.4,1-1v-33.4c0-1.1,0.9-2,2-2h30.4c2.2,0,4,1.8,4,4v4.4
		c0,2.2-1.8,4-4,4H747c-0.6,0-1,0.4-1,1v3.7c0,0.6,0.4,1,1,1h27.5c6.1,0,11-4.9,11-11v-1.8c0-6.1-4.9-11-11-11h-35.2
		C738.2,1258.7,737.3,1259.5,737.3,1260.7z"/>
</g>
</svg>
