<?xml version="1.0" encoding="utf-8"?>
<!-- Generator: Adobe Illustrator 25.2.1, SVG Export Plug-In . SVG Version: 6.00 Build 0)  -->
<svg version="1.1" id="Layer_1" xmlns="http://www.w3.org/2000/svg" xmlns:xlink="http://www.w3.org/1999/xlink" x="0px" y="0px"
	 width="3706.3px" height="950px" viewBox="0 0 3706.3 950" style="enable-background:new 0 0 3706.3 950;" xml:space="preserve">
<style type="text/css">
	.st0{fill:#EFEFEF;}
	.st1{fill:#B3B3B3;}
	.st2{fill:#FFFFFF;}
	.st3{fill:#E88CB8;}
	.st4{fill:#E277AF;}
</style>
<g>
	<path d="M684.8,22.5c-21.6,27.4-65.5,82.9-88.7,113.3h-209c-23.2-30.3-67.1-85.9-88.7-113.3L291,13c-14.6-18.5-43.1-17-55.8,2.8
		L228.8,26c-5.3,8.3-46.2,72.7-67.9,117.7c-19.5,7.3-37.1,19.5-50.9,35.5c-19.6,22.7-30.4,51.7-30.4,81.7v176.2
		c-18.6,10.2-35.2,24.2-48.2,41.1C10.9,505,0,536.9,0,570.8s10.9,65.9,31.4,92.7c13,16.9,29.6,31,48.3,41.2
		c0.1,24.3,0.1,50.9,0.1,70.8c-8.2,4.2-15.9,9.7-22.8,16.3c-19.9,19.1-30.1,45.2-28.1,72.5c3.5,48.6,44.8,85.7,93.5,85.7h256.3h32.7
		l8.7-31.5c8.9-32.3,38.6-54.9,72.1-54.9s63.2,22.6,72.1,54.9l8.7,31.4h32.7h256.6c48.7,0,90-37.2,93.5-85.7
		c2-27.4-8.2-53.4-28.1-72.5c-6.9-6.6-14.5-12-22.8-16.3c0-19.9,0.1-46.5,0.1-70.8c18.7-10.2,35.2-24.2,48.3-41.2
		c20.6-26.8,31.4-58.8,31.4-92.7s-10.9-65.9-31.4-92.7c-13-16.9-29.5-31-48.2-41.1V260.9c0-30.4-11-59.7-31-82.5
		c-14.1-16.1-32-28.2-51.8-35.3c-21.8-45-62.4-108.9-67.6-117.1l-6.5-10.1C735.4-4,706.9-5.5,692.3,13L684.8,22.5z"/>
	<path class="st0" d="M862.1,808c-0.5,0,0-131.9,0-131.9c45.9-13,79.6-55.2,79.6-105.3s-33.7-92.3-79.6-105.3V260.9
		c0-41.5-30.8-75.9-70.8-81.5C776.5,139.8,718.4,49,718.4,49s-93.7,118.5-100.9,129.5h-252C358.6,167.6,264.9,49,264.9,49
		s-58.2,91.1-73,130.5l0,0c-39.4,6.2-69.5,40.2-69.5,81.3v204.7c-45.9,13-79.6,55.2-79.6,105.3S76.5,663,122.4,676
		c0,0,0.5,131.9,0,131.9c-27.3,0-50.9,22.2-50.9,49.5s22.2,49.5,49.5,49.5c0.5,0,257.7,0,257.7,0c13.7-49.8,59.3-86.4,113.5-86.4
		s99.7,36.6,113.5,86.4c0,0,257.5,0,258,0c27.3,0,49.5-22.2,49.5-49.5C913,830.2,889.5,808,862.1,808z"/>
	<path d="M562.2,375.8c0.7-1.6,1.4-3.2,2-4.7c2.2-3.5,3.5-7.7,3.5-12.2c-0.1-12.5-10.5-22.8-23-22.6c-11.1,0.1-20.2,8.2-22.1,18.7
		c-2.1,6-9.3,20.9-28.2,20.9c-9.5,0-16.8-3.5-23.1-11.1c-3.1-3.7-5.2-7.6-6.5-10.3c-2.1-10.4-11.2-18.2-22.2-18.2
		c-12.2,0-22.1,9.3-22.8,21.6c-0.3,5,1.1,9.6,3.6,13.5c0.6,1.5,1.3,3,2.1,4.5H146.5c-4.4,0-7.9,3.5-7.9,7.9v28.1
		c0,44.3,18.2,85.8,51.3,116.9c32.5,30.5,75.5,47.3,121.2,47.3c17.7,0,35-2.5,51.5-7.4c0.6,11.5,4,19.4,4.4,20.2
		c0.5,1.2,1.2,2.3,1.9,3.4c11.1,16.6,26.9,26.6,45.7,28.9c5.2,0.6,20.9,12.6,26.7,16.1c3.3,2,21.3,11.8,52.2,11.8
		c29.8,0,46.8-7.4,49.9-8.9c6.4-3.1,28.3-18.7,31.1-19.1c18.8-2.3,34.6-12.3,45.7-28.9c0.7-1.1,1.4-2.2,1.9-3.4
		c0.3-0.7,3.6-8.1,4.3-19c15.2,4.1,31.1,6.2,47.3,6.2c45.6,0,88.7-16.8,121.2-47.3c33.1-31.1,51.3-72.6,51.3-116.9v-28.1
		c0-4.4-3.5-7.9-7.9-7.9L562.2,375.8L562.2,375.8z"/>
	<path class="st1" d="M472.2,470.8c6.5-16.2,10.3-33.3,11.2-51c3.5,0.5,7.2,0.8,11.1,0.8c2.4,0,4.7-0.1,6.9-0.3
		c0.9,17.3,4.6,34.1,10.9,49.9C499.3,468.4,484.7,468.7,472.2,470.8z"/>
	<g>
		<path class="st2" d="M368.4,411.8c-1.8,26.4-23.8,47.3-50.6,47.3s-48.8-20.9-50.6-47.3h-88.6c-2.2,0-4,1.9-3.9,4.1
			c2.3,68.9,62.5,124.1,136.4,124.1s134.1-55.2,136.4-124.1c0.1-2.2-1.7-4.1-3.9-4.1H368.4L368.4,411.8z"/>
		<path class="st2" d="M616.2,411.8c1.8,26.4,23.8,47.3,50.6,47.3c26.9,0,48.8-20.9,50.6-47.3H806c2.2,0,4,1.9,3.9,4.1
			c-2.3,68.9-62.4,124.1-136.4,124.1s-134.1-55.2-136.4-124.1c-0.1-2.2,1.7-4.1,3.9-4.1H616.2L616.2,411.8z"/>
	</g>
	<g>
		<path d="M221.2,158.8c-2.2,4.6,1.1,9.9,6.2,9.9h95.5c5.6,0,8.8-6.3,5.6-10.8l-17.1-24.3L287.1,99l-8.4-11.9
			c-6-8.5-19-7.5-23.6,1.9L221.2,158.8z"/>
		<path d="M661.7,168.6h95.5c5.1,0,8.4-5.3,6.2-9.9l-34-69.8c-4.6-9.4-17.5-10.4-23.6-1.9l-49.7,70.8
			C652.9,162.4,656.2,168.6,661.7,168.6z"/>
	</g>
	<g>
		<polygon class="st3" points="252.1,146.3 293.2,146.3 268.9,111.8 		"/>
		<polygon class="st3" points="732.5,146.3 691.4,146.3 715.7,111.8 		"/>
	</g>
	<path class="st4" d="M492.2,524.4c-3-14.5-22.5-21-30.7-23.1c-1.5-0.4-1.7-2.5-0.3-3.2c13.1-6.8,49.2-6.8,62.2,0
		c1.4,0.7,1.2,2.8-0.3,3.2C514.8,503.5,495.3,509.9,492.2,524.4L492.2,524.4z"/>
	<path class="st1" d="M452.5,616.5c0,0,9.4-7.9,40.9-7.9s38.5,9.8,38.5,9.8s-13.7,6.5-39.5,6.5C466.6,625,452.5,616.5,452.5,616.5z"
		/>
	<path class="st1" d="M581.5,529.7c-28-23.8-31.3-25.2-31.3-25.2s-0.5,24.3-27.1,24.3c0,0-3.3,18.2-30.8,18.2
		c-27.6,0-30.8-18.2-30.8-18.2c-26.6,0-27.1-24.3-27.1-24.3s-3.3,1.4-31.3,25.2c-28,23.8-16.5,49-16.5,49
		c33.5,50,105.7-15.4,105.7-15.4s72.3,65.4,105.7,15.4C598,578.7,609.5,553.5,581.5,529.7z"/>
	<g>
		<path d="M318,662.3c-0.1,0-0.2,0-0.3,0c-3.8-0.2-6.7-3.3-6.6-7.1c2-51,27.3-80,48.1-95.4c22.5-16.6,44.3-21.1,45.2-21.3
			c3.7-0.8,7.3,1.7,8.1,5.4c0.7,3.7-1.7,7.3-5.4,8.1c-0.3,0.1-20.3,4.3-40.2,19.2c-26.5,19.8-40.6,48.2-42.1,84.6
			C324.7,659.4,321.6,662.3,318,662.3z"/>
		<path d="M353.5,691.6c-3.7,0-6.8-3-6.9-6.8c-1.3-88.4,59.6-114.2,62.2-115.2c3.5-1.4,7.5,0.3,8.9,3.8c1.4,3.5-0.2,7.5-3.7,8.9l0,0
			c-2.2,0.9-54.8,23.7-53.7,102.3C360.4,688.4,357.3,691.5,353.5,691.6L353.5,691.6z"/>
		<path d="M666.6,662.3c-3.7,0-6.7-2.9-6.8-6.6c-1.5-36.3-15.6-64.8-42.1-84.6c-20-15-40-19.2-40.2-19.2c-3.7-0.8-6.1-4.4-5.4-8.1
			c0.8-3.7,4.4-6.1,8.1-5.4c0.9,0.2,22.8,4.7,45.2,21.3c20.8,15.4,46,44.4,48.1,95.4c0.2,3.8-2.8,7-6.6,7.1
			C666.8,662.3,666.7,662.3,666.6,662.3z"/>
		<path d="M631.1,691.6L631.1,691.6c-3.9-0.1-6.9-3.2-6.9-7c1.2-79.1-53.1-102.1-53.6-102.3c-3.5-1.4-5.2-5.4-3.8-8.9
			c1.4-3.5,5.4-5.2,8.9-3.8c2.6,1.1,63.5,26.9,62.2,115.2C637.9,688.6,634.9,691.6,631.1,691.6z"/>
	</g>
</g>
<g>
	<path d="M2244.7,949.7c-388.6,0-777.1,0-1165.4,0.3c-17.6,0-32.7-6.2-45.5-16c-24.1-18.7-38.7-42.8-37.6-75.2s0.8-64.9,0-97.4
		c-0.3-21.6,8.7-39.2,22.2-55.2c15.2-17.6,22.2-36,13-59.5c-11.6-30-12.7-61.2-5.7-92.5c9.5-42.5,18.7-85.2,27.6-128
		c7.6-36.8,14.6-73.6,22.2-110.1c6.2-30,13.5-60.1,19.8-90.1c7.8-37.3,15.4-74.7,23.5-112c7-32.5,21.1-60.6,51.7-76.8
		c11.6-6,25.4-10.3,38.4-10.6c54.4-1.1,109-0.8,163.4-0.3c24.4,0.3,46.5,8.4,67.9,19.2c30,15.4,52,39.8,71.4,67.1
		c8.7,12.4,21.6,11.4,29.2-1.6c8.4-14.1,14.6-29.2,23-43c13.3-21.9,34.4-34.1,58.4-41.4c2.4-0.8,5.1-0.3,7.8-0.3
		c57.4,0,114.7-0.5,172.4,0.3c12.4,0.3,24.9,5.4,37.3,8.7c13.5,3.8,27.1,10,41.4,4.6c9.7-3.8,18.7-9.7,27.6-14.9
		c36-20.3,75-27.9,115.5-23.8c38.7,3.8,74.4,16.8,103.6,43.3c13.8,12.4,27.1,11.1,42.8,3.8c29.2-13.5,59.5-23.8,91.5-27.6
		c18.7-2.2,37.3-3.5,56.3-4.1c38.4-1.1,76.6,0.3,114.2,9.5c16,3.8,31.9,6.5,48.2,9.7c14.1,2.7,26.8-3,39.8-6.5
		c5.1-1.4,10.6-2.4,16-3c5.4-0.5,11.1,0,16.8,0c73.3-0.5,146.7-1.6,220.3-1.9c56.6,0,113.4,0,169.9,2.4
		c24.4,1.1,47.4,11.1,67.9,25.2c28.1,19.2,50.3,43.8,62.8,76c4.6,11.4,8.4,23.3,12.2,34.9c3,8.9,11.1,14.6,20.8,15.2
		c44.6,1.9,88.5,7.6,129.3,27.9c14.1,7,26.5,7,39.8-2.4c13-9.5,27.9-13.8,44.1-13.8c61.7,0.3,123.4,0.3,185.1,0
		c10.8,0,21.9-1.4,32.5-4.1c28.7-6.8,57.6-8.7,86-3.2c35.4,7,63,26,74.4,63.3c5.7,18.7,4.9,37.1,0.3,56
		c-8.1,33.8-14.1,68.5-22.5,102.3c-6.5,26.5-12.2,53.3-34.9,72.2c-21.1,17.6-44.9,23-71.4,19.8c-7.8-1.1-15.7-4.1-23.5-4.9
		c-11.6-1.1-18.7,4.9-21.4,16.2c-4.3,18.4-9.2,36.5-13.3,55.2c-5.1,22.5-9.5,45.2-14.1,67.6c-4.6,21.9-9.5,43.8-13.5,66
		c-2.7,13.5-3.8,27.1,1.1,41.1c5.1,14.1,8.4,29.2,9.2,43.8c1.4,25.7,0.5,51.7,0.3,77.4c0,3.8-1.1,7.6-1.1,11.6
		c-0.3,24.9-12.7,43.6-30.8,58.2c-11.1,8.9-33.6,21.6-48.2,21.6C3399.9,949.7,2634.7,949.7,2244.7,949.7z"/>
	<path class="st0" d="M1686.8,273.3c0.8,0,1.9,0,2.7,0.3c-0.5,3.8-0.5,7.8-1.4,11.6c-3.2,16-7,31.9-10.3,47.9
		c-5.4,26.8-10.6,53.6-16,80.1c-3,14.3-6.5,28.7-9.5,43c-5.4,26.2-10.6,52.8-16.2,79c-4.9,22.7-10.8,44.9-7.6,68.5
		c4.3,34.1,23,56.3,54.4,68.5c26.2,10.3,53.6,8.1,80.9,7.3c6.8-0.3,11.6-5.1,13-13.3c3.5-19.8,8.4-39.5,12.7-59.3
		c3-14.1,5.7-28.1,8.7-42.2c3.8-18.4,7.8-37.1,11.6-55.5c3.2-15.4,6.8-30.6,10-46c4.9-24.1,9.5-48.4,14.6-72.5
		c5.4-24.6,11.4-49.2,16.8-74.1c6.5-30,11.4-60.6,18.7-90.4c7.3-30,4.1-57.6-14.9-82.5c-16.5-21.6-38.7-34.4-66.3-34.6
		c-47.9-0.5-95.8,0-143.7-0.3c-7.3,0-11.6,2.4-14.3,8.9c-4.3,10-9.2,19.8-13.5,29.8c-18.4,43.8-36.8,87.7-55.5,131.5
		c-13.5,31.9-27.3,63.9-41.1,95.8c-8.1,18.9-16.2,37.9-24.6,56.8c-8.9,20.8-17.9,41.7-26.8,62.5c-1.1,2.2-3,4.1-4.6,6.2
		c-1.1-2.4-3-4.9-3.2-7.3c-0.8-22.2-1.4-44.4-2.2-66.6c-1.1-30.6-2.7-61.2-3.8-91.7c-1.4-37.9-2.2-75.8-4.1-113.4
		c-1.1-21.6-2.7-43.6-11.9-63.9c-11.9-25.7-43-47.6-72-48.2c-47.9-0.8-95.8-0.3-143.7-0.3c-16.5,0-18.7,1.6-22.2,17.6
		c-3.8,17.6-6.8,35.2-10.6,52.8c-3.5,16.2-7.6,32.5-11.1,48.7c-5.1,23.5-9.7,47.1-14.9,70.4c-5.4,24.6-11.1,49.2-16.5,74.1
		c-4.6,21.1-8.4,42.2-12.7,63c-4.1,19.5-8.7,38.7-13,58.2c-4.1,18.7-7.6,37.6-11.9,56.6c-4.9,22.2-9.7,43.8-2.2,66.6
		c8.4,25.7,24.6,44.1,48.7,55.2c20.8,9.7,43.6,8.7,66,7.6c4.1-0.3,10-5.7,11.1-9.7c4.6-16.2,8.1-33,11.6-49.5
		c4.9-22.5,10-44.9,14.3-67.6c6.2-32.5,11.9-64.9,18.1-97.4c5.7-29.2,11.6-58.4,17.6-87.7c6-30.3,11.9-60.3,17.9-90.6
		c0.3-1.6,2.4-3.2,5.1-6.5c1.1,7.6,2.2,13,2.4,18.4c0.8,13,1.4,26,2.2,39c1.9,31.1,4.1,62.2,6,93.4c1.4,23.8,2.4,47.4,4.1,71.2
		c1.9,27.6,4.1,54.9,5.7,82.5c1.6,28.1,3,56.6,4.1,85c0.5,14.1,6.8,20.6,20.8,20.6c39.8,0,79.6-0.5,119.1,0.3
		c14.1,0.3,20.8-6.2,25.7-17.3c7.3-16.5,14.9-33,22.5-49.5c15.4-33.3,31.1-66.3,46.5-99.8c18.1-40,35.7-80.4,53.8-120.7
		C1649.5,353.1,1668.4,313,1686.8,273.3z"/>
	<path class="st0" d="M2328.1,97.4c-40.6,0-79.3,7.6-116.6,23.3c-31.9,13.5-58.4,33.8-80.1,61.2c-16.8,21.1-25.7,45.2-30.8,71.4
		c-4.9,23.8-4.1,47.1-1.1,70.6c3.8,30.6,18.7,55.7,39.5,77.7c21.1,22.2,47.6,36,74.1,50.1c16,8.4,31.9,16.5,47.4,25.7
		c11.4,7,21.1,17.3,23.5,30.8c5.1,28.4-13.5,50.3-42.8,51.7c-13.8,0.5-27.6,0-41.4,0c-22.7,0-43.8-7.6-63.9-16.2
		c-18.4-8.1-35.4-19.5-53.3-28.7c-3.8-1.9-11.6-1.1-14.1,1.6c-3.2,4.1-3.2,10.8-4.6,16.2c-4.3,18.9-8.7,38.2-13,57.1
		c-3.5,16-7.3,31.9-10.3,47.9c-1.1,6,0,11.4,7.6,13.5c26.8,8.7,52.8,19.5,80.1,26c26.2,6.2,53.3,10.3,80.1,11.9
		c22.2,1.4,44.6-1.9,67.1-3.5c26-1.6,50.9-8.1,75.2-17.6c41.4-16,74.1-41.9,96.1-80.6c10-17.6,17-36.8,18.9-56.8
		c1.6-17.3,1.4-34.9,0-52.2c-1.6-19.8-7-39.2-16.8-56.8c-14.9-27.1-37.3-46.8-63-63c-27.3-17.3-55.7-33.3-82.8-51.1
		c-18.7-12.4-25.4-26.5-22.5-47.1c2.4-17.3,14.9-24.4,28.7-29.2c23.8-8.7,48.2-3.5,72.2-0.8c13,1.4,25.4,6.8,38.4,8.1
		c19.2,2.4,36.5-4.1,51.4-16c27.3-22.5,32.5-54.1,33.8-86.9c0-3-4.3-7.8-7.6-8.7c-27.6-7.8-55.2-16.5-83.6-21.4
		C2385.2,100.6,2356.5,99.8,2328.1,97.4z"/>
	<path class="st1" d="M1934.9,866.9c280.3,0,560.4,0,840.7,0c15.2,0,15.4-0.3,16.8-15.7c0.3-1.9,0-4.1,0-6c0-23.3,0-46.5,0-69.8
		c0-17,0-17-16.8-17c-560.1,0-1120.2,0-1680.3,0c-2.2,0-4.6,0.3-6.8,0c-6.5-0.8-8.7,3-8.9,8.4c-0.8,14.9-1.9,30-1.9,44.9
		c0,13.8,1.4,27.3,1.6,41.1c0.3,13.8,0,13.8,14.1,13.8C1373.7,866.9,1654.3,866.9,1934.9,866.9z"/>
	<path class="st0" d="M2742.4,109c-64.7,0-129.3,0-193.7,0c-7,0-11.1,1.4-12.7,9.7c-6.5,33.3-14.3,66.3-21.1,99.6
		c-4.1,20.3,0.3,24.6,21.1,24.6c39.2,0,78.7,0.3,118-0.3c9.2,0,12.7,4.3,11.9,12.2c-0.5,6-2.4,11.9-3.8,17.9
		c-6.2,30.6-11.9,60.9-18.4,91.5c-6.8,31.9-14.1,63.6-20.8,95.5c-8.1,38.2-16.5,76.6-22.7,115c-2.4,14.6-1.6,31.1,2.4,45.5
		c4.9,16.8,16.5,30.8,31.1,41.7c7.6,5.7,16,12.7,24.9,13.5c25.4,3,51.1,3.5,76.8,4.3c11.1,0.5,16.2-4.9,17.6-16
		c0.3-2.2,0.3-4.6,0.5-6.8c3.8-17,7.6-34.4,11.1-51.4c3.5-17.6,6.8-35.2,10.6-52.8c3.2-15.7,7.8-30.8,11.1-46.5
		c4.6-20.6,8.4-41.4,12.7-62.2c3-14.3,6-28.7,9.2-43.3c5.1-24.9,10.3-49.5,15.4-74.4c4.3-21.1,8.9-42.2,12.2-63.3
		c2.4-16.8,5.4-20.3,22.7-20.3c44.4,0,88.5-0.3,132.9,0.3c7,0,11.6-2.4,13.3-8.7c2.2-8.9,4.3-18.4,4.6-27.6
		c0.3-28.4-9.5-54.1-29.2-74.4c-13.8-14.3-31.1-23.8-53-23.8C2865.2,109.3,2803.8,109,2742.4,109z"/>
	<path class="st0" d="M3002.9,528.4c7.8-1.4,15.2-3.2,22.7-4.1c27.6-3,55.7-3.8,83.1-8.4c29.8-5.1,59.3-12.4,86.9-25.7
		c27.1-13.3,48.7-32.2,60.6-60.6c10.6-24.6,8.7-50.6,4.3-75.8c-6.5-37.9-31.7-61.2-65.8-75.5c-18.7-7.8-38.4-11.6-58.7-14.6
		c-29.5-4.1-57.9-2.4-86.6,2.7c-32.2,6-62.8,16.5-91.2,33.6c-32.7,19.5-57.6,46.3-77.4,78.5c-18.1,29.5-31.9,61.2-36.5,95.2
		c-4.3,31.7-4.9,63.9,3,95.8c11.9,49.5,41.1,83.1,87.7,102.6c18.7,7.8,38.7,10.8,58.7,14.6c32.5,6,64.1,2.4,95.8-1.9
		c23-3.2,45.5-10.3,67.9-16.8c11.9-3.5,26-5.7,31.7-19.5c3.2-8.1,4.6-17.3,6.5-26c4.3-20.8,8.7-41.9,12.4-63
		c1.9-10-0.3-11.4-10.6-8.1c-13.8,4.3-27.6,7.8-41.1,12.7c-29.8,10.6-60.1,15.7-91.5,13c-12.7-1.1-26.2-4.3-37.6-10
		C3012.1,560.1,3002.1,547.9,3002.9,528.4z"/>
	<path class="st0" d="M3480.2,272.5c-4.6,0-7.8,0-11.4,0c-46.3,0-92.5,0.3-138.8-0.3c-10-0.3-14.6,4.3-17,12.4
		c-2.4,7.6-3.5,15.7-4.9,23.5c-2.7,14.1-5.1,28.4-8.1,42.5c-3,15.4-6.8,30.6-9.7,46c-4.1,20.6-7.3,41.1-11.4,61.4
		c-3.2,16-7.3,31.9-10.3,47.9c-4.3,23.3-7.6,47.1-12.2,70.4c-5.7,29,2.4,53.6,21.6,75c18.4,20.6,42.2,28.7,69.3,28.7
		c17.9,0,35.7,0,53.3,0c1.6-5.4,3-8.4,3.5-11.4c4.1-20.6,7.6-40.9,11.9-61.4c6.2-29.2,12.4-58.2,19.8-87.1
		c7-27.6,11.9-55.7,31.1-78.7c14.3-17,32.2-28.4,53.3-32.7c19.2-3.8,39.2-3,57.9,4.1c6.5,2.4,8.9-0.5,10-5.1
		c4.6-16.8,8.7-33.6,12.7-50.3c5.7-24.4,10.6-48.7,16.8-73.1c3.8-15.2,1.1-19.5-14.3-20c-1.6,0-3.2,0-4.9-0.3
		c-23-3.2-44.6,0.3-64.9,11.9c-17.6,10-28.4,26.2-40.6,41.4c-6,7.6-11.9,15.2-17.9,22.5c-0.8-0.5-1.6-0.8-2.4-1.4
		C3475.4,316.8,3477.8,295.5,3480.2,272.5z"/>
	<path class="st0" d="M1942.2,680c4.9,0,9.7,0,14.9,0c19.8,0,20.3,0,25.4-18.1c4.1-15.2,7.3-30.6,10.6-46
		c6.8-31.7,13-63.3,19.8-95.2c3.8-17.6,7.8-34.9,11.6-52.5c4.6-22.2,9.5-44.4,13.3-66.8c3.5-19.5,8.7-39.2,4.3-59.3
		c-7-33.3-22.5-53.6-55.5-63.9c-27.9-8.7-56.8-5.1-85.2-5.7c-2.2,0-6,2.2-6.5,4.1c-2.2,6-3,12.4-4.3,18.7c-3,14.3-5.7,29-8.7,43.3
		c-3,14.1-6.2,28.1-9.2,42.2c-4.3,20-8.4,40-12.4,60.3c-3,14.1-6.2,28.1-9.2,42.2c-4.3,20-8.4,40-12.4,60.3
		c-4.1,20.8-9.7,41.1-5.7,63c6,31.7,23.5,52.5,52,65.8C1903.3,680.8,1922.8,680,1942.2,680z"/>
	<path class="st0" d="M2010.2,81.8c-4.4-0.5-8.9-0.3-13.2,0.7c-12.8,2.7-25.7,4.5-37.7,9.2c-14.3,6-27.3,14.6-37.9,27.3
		c-13.5,16.5-17.9,35.2-15.2,55.5c2.4,18.7,10.8,34.6,25.7,46.5c12.7,10.3,26.5,18.1,43.6,17.9c16.5-0.3,33.6,2.2,49.2-1.1
		c19.8-4.3,36.5-15.2,51.7-29.8c26.5-25.2,22.7-72.5,0-97.4C2058.4,91.4,2035.6,84.5,2010.2,81.8z"/>
	<path d="M3111.4,384.7c-0.5,17-9.2,29-21.9,36.8c-14.1,8.9-53.3,17-55.7,18.4c-7.6,4.1-15.2,1.9-19.5-3c-3-3.5-3-11.9-1.1-16.8
		c8.4-21.1,19.2-40.3,39.5-53.3c12.7-8.1,26-9.7,40.3-7.8C3101.7,360.4,3113.3,375.3,3111.4,384.7z"/>
	<g>
		<circle cx="1150.2" cy="812.8" r="25.4"/>
		<circle cx="1217.1" cy="812.8" r="25.4"/>
		<circle cx="1280.9" cy="812.8" r="25.4"/>
		
			<ellipse transform="matrix(6.652065e-02 -0.9978 0.9978 6.652065e-02 446.1662 2102.5603)" cx="1346.8" cy="812.8" rx="25.4" ry="25.4"/>
		<circle cx="1412.2" cy="812.8" r="25.4"/>
		<ellipse transform="matrix(0.1602 -0.9871 0.9871 0.1602 438.2133 2140.6616)" cx="1477.1" cy="812.8" rx="25.4" ry="25.4"/>
		<circle cx="1542" cy="812.8" r="25.4"/>
		<circle cx="1607.8" cy="812.8" r="25.4"/>
		<circle cx="1704.7" cy="812.8" r="25.4"/>
		<circle cx="1772.3" cy="812.8" r="25.4"/>
		<circle cx="1837.2" cy="812.8" r="25.4"/>
		<circle cx="1902.2" cy="812.8" r="25.4"/>
		<ellipse transform="matrix(0.1602 -0.9871 0.9871 0.1602 850.1265 2624.9663)" cx="1967.7" cy="812.9" rx="25.4" ry="25.4"/>
		<circle cx="2030.2" cy="812.8" r="25.4"/>
		<circle cx="2097.3" cy="812.8" r="25.4"/>
		<circle cx="2165.2" cy="812.8" r="25.4"/>
		<circle cx="2262.6" cy="812.8" r="25.4"/>
		<circle cx="2326.7" cy="812.8" r="25.4"/>
		<ellipse transform="matrix(0.7071 -0.7071 0.7071 0.7071 125.9892 1929.8862)" cx="2392.6" cy="812.9" rx="25.4" ry="25.4"/>
		<circle cx="2457.4" cy="812.8" r="25.4"/>
		<circle cx="2522.6" cy="812.8" r="25.4"/>
		<circle cx="2587.6" cy="812.8" r="25.4"/>
		<circle cx="2654.4" cy="812.8" r="25.4"/>
		<circle cx="2720.4" cy="812.8" r="25.4"/>
		<circle class="st1" cx="1150.2" cy="812.8" r="9.7"/>
		<circle class="st1" cx="1280.9" cy="812.8" r="9.7"/>
		<circle class="st1" cx="1412.2" cy="812.8" r="9.7"/>
		
			<ellipse transform="matrix(0.1602 -0.9871 0.9871 0.1602 438.2128 2140.6616)" class="st1" cx="1477.1" cy="812.8" rx="9.7" ry="9.7"/>
		<circle class="st1" cx="1704.7" cy="812.8" r="9.7"/>
		<circle class="st1" cx="1837.2" cy="812.8" r="9.7"/>
		<circle class="st1" cx="1967.1" cy="812.8" r="9.7"/>
		<circle class="st1" cx="2030.2" cy="812.8" r="9.7"/>
		<circle class="st1" cx="2165.2" cy="812.8" r="9.7"/>
		<circle class="st1" cx="2262.6" cy="812.8" r="9.7"/>
		<circle class="st1" cx="2392.5" cy="812.8" r="9.7"/>
		<circle class="st1" cx="2457.4" cy="812.8" r="9.7"/>
		<circle class="st1" cx="2522.6" cy="812.8" r="9.7"/>
	</g>
</g>
<g>
	<path class="st4" d="M2973.2,768.3v-10c0-1.5-1.2-2.7-2.7-2.7h-96.9c-13.4,0-24.4,10.9-24.4,24.4v86.7c0,1.5,1.2,2.7,2.7,2.7h10.5
		c1.5,0,2.7-1.2,2.7-2.7v-46.8h105.3c1.5,0,2.7-1.2,2.7-2.7v-10c0-1.5-1.2-2.7-2.7-2.7h-105.3v-19.9c0-7.5,6.1-13.5,13.5-13.5h91.8
		C2972,771,2973.2,769.7,2973.2,768.3z"/>
	<path class="st4" d="M3154.4,840.4v-55.9c0-7.5,6.1-13.5,13.5-13.5h94.5c1.5,0,2.7-1.2,2.7-2.7v-10c0-1.5-1.2-2.7-2.7-2.7h-99.6
		c-13.4,0-24.4,10.9-24.4,24.4V845c0,13.4,10.9,24.4,24.4,24.4h77.9c13.4,0,24.4-10.9,24.4-24.4v-37.8c0-1.5-1.2-2.7-2.7-2.7
		l-72.9,0c-1.5,0-2.7,1.2-2.7,2.7v10c0,1.5,1.2,2.7,2.7,2.7h54.2c3,0,5.4,2.4,5.4,5.4v15c0,7.5-6.1,13.5-13.5,13.5h-67.7
		C3160.5,853.9,3154.4,847.8,3154.4,840.4z"/>
	<path class="st4" d="M3285.6,779.9v86.7c0,1.5,1.2,2.7,2.7,2.7h10.5c1.5,0,2.7-1.2,2.7-2.7v-43.7c0-1.5,1.2-2.7,2.7-2.7h89.5
		c1.5,0,2.7,1.2,2.7,2.7v43.7c0,1.5,1.2,2.7,2.7,2.7h10.5c1.5,0,2.7-1.2,2.7-2.7v-86.7c0-13.4-10.9-24.4-24.4-24.4H3310
		C3296.5,755.5,3285.6,766.4,3285.6,779.9z M3301.6,802v-17.6c0-7.5,6.1-13.5,13.5-13.5h67.9c7.5,0,13.5,6.1,13.5,13.5V802
		c0,1.5-1.2,2.7-2.7,2.7h-89.5C3302.8,804.7,3301.6,803.5,3301.6,802z"/>
	<path class="st4" d="M2991.3,760.9v105.7c0,1.5,1.2,2.7,2.7,2.7h10.5c1.5,0,2.7-1.2,2.7-2.7v-90.3c0-3,2.4-5.4,5.4-5.4h82.3
		c6,0,10.8,4.8,10.8,10.8v11.9c0,6-4.8,10.8-10.8,10.8h-77.4c-1.5,0-2.7,1.2-2.7,2.7v10c0,1.5,1.2,2.7,2.7,2.7h74.5
		c16.4,0,29.8-13.3,29.8-29.8v-4.9c0-16.4-13.3-29.8-29.8-29.8h-95.3C2993.7,755.5,2991.3,758,2991.3,760.9z"/>
</g>
</svg>
